<svg width="375" height="667" viewBox="0 0 375 667" fill="none" xmlns="http://www.w3.org/2000/svg">
<rect width="375" height="667" fill="#E02041"/>
<path d="M158.173 373.74H141.792L151.634 340.16H143.311L129.639 385H113.258L140.339 294.194H156.72L147.473 326.052H155.795L168.939 283H185.32L158.173 373.74Z" fill="#F0F0F5"/>
<path d="M186.641 294.194H217.883L213.193 308.5H198.992L193.84 325.986H208.107L203.616 340.094H189.679L184.197 358.573H199.389L193.906 373.674H163.259L186.641 294.194Z" fill="#F0F0F5"/>
<path d="M213.259 385H196.746L223.101 294.194H253.088C256.655 294.194 259.033 295.187 260.288 297.24C261.542 299.294 261.741 301.612 260.948 304.261L253.022 331.284C252.626 332.477 251.899 333.536 250.776 334.53C249.653 335.523 248.068 335.987 246.021 335.987C247.275 336.186 248.332 336.981 249.191 338.371C250.05 339.762 250.05 341.882 249.191 344.73L240.67 373.74H224.224L233.339 342.544C233.537 341.882 233.603 341.286 233.405 340.69C233.207 340.094 232.612 339.829 231.621 339.829H226.139L213.259 385ZM235.188 328.105C235.981 328.105 236.707 327.907 237.434 327.509C238.094 327.112 238.623 326.317 239.019 325.058L243.378 310.288C244.039 308.103 243.18 306.977 240.869 306.977H235.717L229.508 328.105H235.188Z" fill="#F0F0F5"/>
<path d="M301.239 294.194C303.815 294.194 305.665 295.121 306.854 296.975C308.042 298.83 308.307 300.949 307.646 303.268L289.416 365.329C288.425 368.64 286.708 370.826 284.33 372.018C281.952 373.21 279.376 373.74 276.668 373.74H257.117C255.73 373.74 254.475 373.475 253.286 373.012C252.097 372.548 251.173 371.82 250.38 370.892C249.587 369.965 249.125 368.773 248.861 367.448C248.597 366.123 248.729 364.6 249.257 362.878L267.157 301.943C267.751 299.625 268.94 297.704 270.724 296.313C272.507 294.922 274.753 294.194 277.461 294.194H301.239ZM284.066 306.977C283.273 306.977 282.679 307.175 282.349 307.507C281.952 307.904 281.754 308.368 281.556 308.897L266.959 358.44C266.562 359.765 267.091 360.427 268.478 360.427H272.705C274.092 360.427 274.951 359.765 275.347 358.44L289.878 308.964C290.209 307.573 289.68 306.91 288.227 306.91H284.066V306.977Z" fill="#F0F0F5"/>
<g opacity="0.5">
<path d="M98.1853 302.87H108.819C110.207 302.87 111.065 303.268 111.462 303.996C111.858 304.725 111.924 305.586 111.66 306.645L109.15 315.256C109.018 315.786 108.687 316.249 108.159 316.647C107.631 317.11 106.838 317.243 105.847 317.243C106.376 317.243 106.772 317.375 107.036 317.574C107.366 317.773 107.565 318.038 107.697 318.369C107.829 318.7 107.895 319.031 107.895 319.429C107.895 319.826 107.829 320.223 107.763 320.555L105.385 328.436C105.121 329.364 104.592 330.092 103.932 330.622C103.271 331.152 102.214 331.417 100.959 331.417H89.7968L98.1853 302.87ZM99.2421 326.714C99.5063 326.714 99.7705 326.648 99.9687 326.582C100.167 326.449 100.365 326.184 100.497 325.787L102.214 320.025C102.346 319.627 102.346 319.362 102.214 319.097C102.082 318.832 101.818 318.766 101.422 318.766H99.5723L97.1945 326.781H99.2421V326.714ZM102.479 314.925C102.875 314.925 103.205 314.858 103.403 314.726C103.601 314.594 103.8 314.329 103.932 313.865L105.451 308.699C105.583 308.301 105.583 308.036 105.517 307.838C105.385 307.639 105.121 307.507 104.724 307.507H102.809L100.629 314.925H102.479Z" fill="white"/>
<path d="M114.83 302.87H126.059L124.539 308.036H119.255L117.406 314.329H122.558L121.039 319.429H115.887L113.905 326.052H119.387L117.406 331.483H106.441L114.83 302.87Z" fill="white"/>
<path d="M86.2301 336.451L84.7109 341.617H80.6818L73.8785 364.997H68L74.9354 341.551H70.8402L72.3594 336.384H86.2301V336.451Z" fill="white"/>
<path d="M94.2224 364.997H88.3438L91.8445 352.943H88.8722L85.3055 364.997H79.4269L87.8154 336.45H93.6939L90.3914 347.909H93.3637L96.7323 336.45H102.611L94.2224 364.997Z" fill="white"/>
<path d="M104.46 336.45H115.689L114.17 341.617H108.886L107.036 347.909H112.188L110.669 353.009H105.517L103.535 359.632H109.018L107.036 365.063H96.0717L104.46 336.45Z" fill="white"/>
</g>
</svg>
